<svg width="851" height="292" viewBox="0 0 851 292" fill="none" xmlns="http://www.w3.org/2000/svg">
<g filter="url(#filter0_d_116_103)">
<path d="M226.131 24.5676L207.748 88H198.465L183.722 36.9446L168.432 88L159.241 88.091L141.494 24.5676H150.322L164.155 78.3532L179.444 24.5676H188.727L203.288 78.1712L217.213 24.5676H226.131ZM280.698 61.1527C280.698 62.7302 280.607 64.3987 280.425 66.1581H240.564C240.867 71.0726 242.536 74.9252 245.569 77.7161C248.664 80.4464 252.395 81.8115 256.763 81.8115C260.343 81.8115 263.316 80.9924 265.682 79.3543C268.109 77.6555 269.808 75.4106 270.778 72.6197H279.697C278.362 77.4128 275.693 81.3261 271.689 84.3597C267.684 87.3326 262.709 88.8191 256.763 88.8191C252.031 88.8191 247.784 87.7573 244.022 85.6338C240.321 83.5103 237.409 80.507 235.285 76.624C233.162 72.6804 232.1 68.13 232.1 62.9729C232.1 57.8158 233.132 53.2957 235.194 49.4127C237.257 45.5297 240.139 42.5568 243.84 40.4939C247.602 38.3704 251.909 37.3087 256.763 37.3087C261.496 37.3087 265.682 38.3401 269.322 40.4029C272.963 42.4658 275.754 45.3174 277.695 48.9577C279.697 52.5373 280.698 56.6023 280.698 61.1527ZM272.144 59.4236C272.144 56.2686 271.446 53.5687 270.05 51.3239C268.655 49.0183 266.744 47.2892 264.317 46.1364C261.951 44.923 259.311 44.3163 256.399 44.3163C252.213 44.3163 248.633 45.6511 245.66 48.3206C242.748 50.9902 241.08 54.6912 240.655 59.4236H272.144ZM299.912 20.6543V88H291.63V20.6543H299.912ZM310.932 62.9729C310.932 57.8158 311.963 53.326 314.026 49.5037C316.089 45.6207 318.941 42.6175 322.581 40.4939C326.282 38.3704 330.499 37.3087 335.231 37.3087C341.359 37.3087 346.395 38.7951 350.338 41.7681C354.343 44.741 356.982 48.8667 358.256 54.1451H349.337C348.488 51.1115 346.819 48.715 344.332 46.9555C341.905 45.196 338.871 44.3163 335.231 44.3163C330.499 44.3163 326.676 45.9544 323.764 49.2307C320.852 52.4463 319.396 57.027 319.396 62.9729C319.396 68.9794 320.852 73.6208 323.764 76.8971C326.676 80.1733 330.499 81.8115 335.231 81.8115C338.871 81.8115 341.905 80.9621 344.332 79.2633C346.759 77.5644 348.427 75.1376 349.337 71.9826H358.256C356.921 77.0791 354.252 81.1744 350.247 84.2687C346.243 87.3023 341.238 88.8191 335.231 88.8191C330.499 88.8191 326.282 87.7573 322.581 85.6338C318.941 83.5103 316.089 80.507 314.026 76.624C311.963 72.741 310.932 68.1906 310.932 62.9729ZM391.057 88.8191C386.386 88.8191 382.139 87.7573 378.316 85.6338C374.555 83.5103 371.582 80.507 369.397 76.624C367.274 72.6804 366.212 68.13 366.212 62.9729C366.212 57.8764 367.304 53.3867 369.488 49.5037C371.733 45.56 374.767 42.5568 378.589 40.4939C382.412 38.3704 386.689 37.3087 391.421 37.3087C396.154 37.3087 400.431 38.3704 404.253 40.4939C408.076 42.5568 411.079 45.5297 413.263 49.4127C415.508 53.2957 416.63 57.8158 416.63 62.9729C416.63 68.13 415.478 72.6804 413.172 76.624C410.927 80.507 407.863 83.5103 403.98 85.6338C400.097 87.7573 395.79 88.8191 391.057 88.8191ZM391.057 81.5384C394.03 81.5384 396.821 80.8407 399.43 79.4453C402.039 78.0498 404.132 75.9566 405.71 73.1657C407.348 70.3748 408.167 66.9772 408.167 62.9729C408.167 58.9685 407.378 55.5709 405.801 52.78C404.223 49.9891 402.16 47.9262 399.612 46.5915C397.064 45.196 394.303 44.4983 391.33 44.4983C388.297 44.4983 385.506 45.196 382.958 46.5915C380.47 47.9262 378.468 49.9891 376.951 52.78C375.434 55.5709 374.676 58.9685 374.676 62.9729C374.676 67.0379 375.404 70.4658 376.86 73.2567C378.377 76.0476 380.379 78.1408 382.867 79.5363C385.354 80.8711 388.084 81.5384 391.057 81.5384ZM487.494 37.2177C491.377 37.2177 494.835 38.0367 497.868 39.6749C500.902 41.2523 503.299 43.6489 505.058 46.8645C506.818 50.0801 507.697 53.9934 507.697 58.6045V88H499.507V59.7876C499.507 54.8125 498.263 51.0205 495.775 48.4116C493.348 45.7421 490.042 44.4073 485.855 44.4073C481.548 44.4073 478.12 45.8027 475.572 48.5936C473.023 51.3239 471.749 55.2979 471.749 60.5157V88H463.558V59.7876C463.558 54.8125 462.315 51.0205 459.827 48.4116C457.4 45.7421 454.094 44.4073 449.907 44.4073C445.6 44.4073 442.172 45.8027 439.623 48.5936C437.075 51.3239 435.801 55.2979 435.801 60.5157V88H427.519V38.1277H435.801V45.3174C437.439 42.7085 439.623 40.7063 442.354 39.3108C445.145 37.9154 448.209 37.2177 451.545 37.2177C455.732 37.2177 459.433 38.1581 462.648 40.0389C465.864 41.9197 468.261 44.6803 469.838 48.3206C471.233 44.8016 473.539 42.0714 476.755 40.1299C479.97 38.1884 483.55 37.2177 487.494 37.2177ZM566.786 61.1527C566.786 62.7302 566.695 64.3987 566.513 66.1581H526.652C526.955 71.0726 528.624 74.9252 531.657 77.7161C534.751 80.4464 538.483 81.8115 542.851 81.8115C546.431 81.8115 549.404 80.9924 551.77 79.3543C554.197 77.6555 555.896 75.4106 556.866 72.6197H565.785C564.45 77.4128 561.781 81.3261 557.776 84.3597C553.772 87.3326 548.797 88.8191 542.851 88.8191C538.119 88.8191 533.872 87.7573 530.11 85.6338C526.409 83.5103 523.497 80.507 521.373 76.624C519.25 72.6804 518.188 68.13 518.188 62.9729C518.188 57.8158 519.219 53.2957 521.282 49.4127C523.345 45.5297 526.227 42.5568 529.928 40.4939C533.69 38.3704 537.997 37.3087 542.851 37.3087C547.584 37.3087 551.77 38.3401 555.41 40.4029C559.051 42.4658 561.841 45.3174 563.783 48.9577C565.785 52.5373 566.786 56.6023 566.786 61.1527ZM558.231 59.4236C558.231 56.2686 557.534 53.5687 556.138 51.3239C554.743 49.0183 552.832 47.2892 550.405 46.1364C548.039 44.923 545.399 44.3163 542.487 44.3163C538.301 44.3163 534.721 45.6511 531.748 48.3206C528.836 50.9902 527.167 54.6912 526.743 59.4236H558.231ZM612.082 44.9533V74.3488C612.082 76.7757 612.598 78.5049 613.63 79.5363C614.661 80.507 616.451 80.9924 618.999 80.9924H625.097V88H617.634C613.023 88 609.565 86.9382 607.259 84.8147C604.954 82.6912 603.801 79.2026 603.801 74.3488V44.9533H597.339V38.1277H603.801V25.5687H612.082V38.1277H625.097V44.9533H612.082ZM656.882 88.8191C652.21 88.8191 647.963 87.7573 644.141 85.6338C640.379 83.5103 637.406 80.507 635.222 76.624C633.098 72.6804 632.037 68.13 632.037 62.9729C632.037 57.8764 633.129 53.3867 635.313 49.5037C637.558 45.56 640.591 42.5568 644.414 40.4939C648.236 38.3704 652.513 37.3087 657.246 37.3087C661.978 37.3087 666.256 38.3704 670.078 40.4939C673.9 42.5568 676.903 45.5297 679.088 49.4127C681.332 53.2957 682.455 57.8158 682.455 62.9729C682.455 68.13 681.302 72.6804 678.997 76.624C676.752 80.507 673.688 83.5103 669.805 85.6338C665.922 87.7573 661.614 88.8191 656.882 88.8191ZM656.882 81.5384C659.855 81.5384 662.646 80.8407 665.254 79.4453C667.863 78.0498 669.957 75.9566 671.534 73.1657C673.172 70.3748 673.991 66.9772 673.991 62.9729C673.991 58.9685 673.202 55.5709 671.625 52.78C670.048 49.9891 667.985 47.9262 665.436 46.5915C662.888 45.196 660.128 44.4983 657.155 44.4983C654.121 44.4983 651.33 45.196 648.782 46.5915C646.295 47.9262 644.292 49.9891 642.776 52.78C641.259 55.5709 640.5 58.9685 640.5 62.9729C640.5 67.0379 641.228 70.4658 642.685 73.2567C644.201 76.0476 646.204 78.1408 648.691 79.5363C651.179 80.8711 653.909 81.5384 656.882 81.5384Z" fill="#EAEAEA"/>
<path d="M84.9446 222L58.6426 174.26H51.2564V222H20.4507V95.5343H72.1539C82.1222 95.5343 90.5893 97.2757 97.5551 100.759C104.641 104.242 109.925 109.046 113.408 115.171C116.891 121.176 118.633 127.901 118.633 135.348C118.633 143.755 116.231 151.261 111.427 157.866C106.743 164.472 99.777 169.156 90.5293 171.918L119.714 222H84.9446ZM51.2564 152.462H70.3524C75.9971 152.462 80.2006 151.081 82.9629 148.318C85.8453 145.556 87.2865 141.653 87.2865 136.609C87.2865 131.805 85.8453 128.021 82.9629 125.259C80.2006 122.497 75.9971 121.116 70.3524 121.116H51.2564V152.462ZM131.846 171.558C131.846 161.229 133.767 152.162 137.61 144.355C141.574 136.549 146.918 130.544 153.644 126.34C160.37 122.136 167.876 120.035 176.163 120.035C183.249 120.035 189.434 121.476 194.718 124.358C200.123 127.241 204.266 131.024 207.149 135.708V121.476H237.954V222H207.149V207.768C204.146 212.452 199.943 216.235 194.538 219.118C189.254 222 183.069 223.441 175.983 223.441C167.816 223.441 160.37 221.339 153.644 217.136C146.918 212.812 141.574 206.747 137.61 198.941C133.767 191.014 131.846 181.886 131.846 171.558ZM207.149 171.738C207.149 164.052 204.987 157.986 200.663 153.543C196.46 149.099 191.295 146.877 185.17 146.877C179.045 146.877 173.821 149.099 169.497 153.543C165.294 157.866 163.192 163.871 163.192 171.558C163.192 179.244 165.294 185.369 169.497 189.933C173.821 194.377 179.045 196.599 185.17 196.599C191.295 196.599 196.46 194.377 200.663 189.933C204.987 185.489 207.149 179.424 207.149 171.738ZM291.047 135.708C294.049 131.024 298.193 127.241 303.477 124.358C308.762 121.476 314.947 120.035 322.033 120.035C330.32 120.035 337.826 122.136 344.551 126.34C351.277 130.544 356.562 136.549 360.405 144.355C364.368 152.162 366.35 161.229 366.35 171.558C366.35 181.886 364.368 191.014 360.405 198.941C356.562 206.747 351.277 212.812 344.551 217.136C337.826 221.339 330.32 223.441 322.033 223.441C315.067 223.441 308.882 222 303.477 219.118C298.193 216.235 294.049 212.512 291.047 207.948V269.92H260.241V121.476H291.047V135.708ZM335.004 171.558C335.004 163.871 332.842 157.866 328.518 153.543C324.315 149.099 319.09 146.877 312.845 146.877C306.72 146.877 301.495 149.099 297.172 153.543C292.968 157.986 290.867 164.052 290.867 171.738C290.867 179.424 292.968 185.489 297.172 189.933C301.495 194.377 306.72 196.599 312.845 196.599C318.97 196.599 324.194 194.377 328.518 189.933C332.842 185.369 335.004 179.244 335.004 171.558ZM428.269 223.441C418.421 223.441 409.534 221.339 401.607 217.136C393.801 212.932 387.615 206.927 383.052 199.121C378.608 191.314 376.386 182.187 376.386 171.738C376.386 161.409 378.668 152.342 383.232 144.535C387.796 136.609 394.041 130.544 401.967 126.34C409.894 122.136 418.782 120.035 428.63 120.035C438.478 120.035 447.365 122.136 455.292 126.34C463.219 130.544 469.464 136.609 474.028 144.535C478.592 152.342 480.873 161.409 480.873 171.738C480.873 182.067 478.531 191.194 473.848 199.121C469.284 206.927 462.978 212.932 454.932 217.136C447.005 221.339 438.118 223.441 428.269 223.441ZM428.269 196.779C434.154 196.779 439.139 194.617 443.222 190.293C447.425 185.97 449.527 179.785 449.527 171.738C449.527 163.691 447.486 157.506 443.402 153.182C439.439 148.859 434.515 146.697 428.63 146.697C422.625 146.697 417.641 148.859 413.677 153.182C409.714 157.386 407.732 163.571 407.732 171.738C407.732 179.785 409.654 185.97 413.497 190.293C417.46 194.617 422.385 196.779 428.269 196.779ZM535.408 120.035C542.494 120.035 548.68 121.476 553.964 124.358C559.368 127.241 563.512 131.024 566.394 135.708V121.476H597.2V221.82C597.2 231.068 595.339 239.415 591.615 246.861C588.012 254.427 582.428 260.432 574.861 264.876C567.415 269.32 558.107 271.541 546.938 271.541C532.046 271.541 519.976 267.998 510.728 260.913C501.48 253.947 496.196 244.459 494.875 232.449H525.32C526.281 236.292 528.563 239.294 532.166 241.456C535.769 243.738 540.212 244.879 545.497 244.879C551.862 244.879 556.906 243.018 560.63 239.294C564.473 235.691 566.394 229.867 566.394 221.82V207.588C563.392 212.272 559.248 216.115 553.964 219.118C548.68 222 542.494 223.441 535.408 223.441C527.121 223.441 519.615 221.339 512.89 217.136C506.164 212.812 500.82 206.747 496.856 198.941C493.013 191.014 491.091 181.886 491.091 171.558C491.091 161.229 493.013 152.162 496.856 144.355C500.82 136.549 506.164 130.544 512.89 126.34C519.615 122.136 527.121 120.035 535.408 120.035ZM566.394 171.738C566.394 164.052 564.233 157.986 559.909 153.543C555.705 149.099 550.541 146.877 544.416 146.877C538.291 146.877 533.066 149.099 528.743 153.543C524.539 157.866 522.438 163.871 522.438 171.558C522.438 179.244 524.539 185.369 528.743 189.933C533.066 194.377 538.291 196.599 544.416 196.599C550.541 196.599 555.705 194.377 559.909 189.933C564.233 185.489 566.394 179.424 566.394 171.738ZM714.246 170.117C714.246 172.999 714.066 176.002 713.705 179.124H643.987C644.468 185.369 646.449 190.173 649.932 193.536C653.535 196.779 657.919 198.4 663.083 198.4C670.77 198.4 676.114 195.158 679.117 188.672H711.904C710.223 195.278 707.16 201.223 702.716 206.507C698.393 211.791 692.928 215.935 686.323 218.937C679.717 221.94 672.331 223.441 664.164 223.441C654.316 223.441 645.548 221.339 637.862 217.136C630.176 212.932 624.171 206.927 619.847 199.121C615.523 191.314 613.362 182.187 613.362 171.738C613.362 161.289 615.463 152.162 619.667 144.355C623.99 136.549 629.995 130.544 637.682 126.34C645.368 122.136 654.196 120.035 664.164 120.035C673.892 120.035 682.539 122.076 690.106 126.16C697.672 130.243 703.557 136.068 707.76 143.634C712.084 151.201 714.246 160.028 714.246 170.117ZM682.72 162.01C682.72 156.725 680.918 152.522 677.315 149.399C673.712 146.277 669.208 144.715 663.804 144.715C658.639 144.715 654.256 146.217 650.653 149.219C647.17 152.222 645.008 156.485 644.167 162.01H682.72ZM791.749 120.395C803.519 120.395 812.886 124.238 819.852 131.925C826.938 139.491 830.481 149.94 830.481 163.271V222H799.855V167.414C799.855 160.689 798.114 155.464 794.631 151.741C791.148 148.018 786.464 146.157 780.579 146.157C774.694 146.157 770.011 148.018 766.528 151.741C763.045 155.464 761.303 160.689 761.303 167.414V222H730.497V121.476H761.303V134.807C764.426 130.363 768.629 126.88 773.914 124.358C779.198 121.716 785.143 120.395 791.749 120.395Z" fill="url(#paint0_linear_116_103)"/>
</g>
<defs>
<filter id="filter0_d_116_103" x="0.450684" y="0.654251" width="850.031" height="290.887" filterUnits="userSpaceOnUse" color-interpolation-filters="sRGB">
<feFlood flood-opacity="0" result="BackgroundImageFix"/>
<feColorMatrix in="SourceAlpha" type="matrix" values="0 0 0 0 0 0 0 0 0 0 0 0 0 0 0 0 0 0 127 0" result="hardAlpha"/>
<feOffset/>
<feGaussianBlur stdDeviation="10"/>
<feComposite in2="hardAlpha" operator="out"/>
<feColorMatrix type="matrix" values="0 0 0 0 0 0 0 0 0 0 0 0 0 0 0 0 0 0 0.5 0"/>
<feBlend mode="normal" in2="BackgroundImageFix" result="effect1_dropShadow_116_103"/>
<feBlend mode="normal" in="SourceGraphic" in2="effect1_dropShadow_116_103" result="shape"/>
</filter>
<linearGradient id="paint0_linear_116_103" x1="425" y1="22" x2="425" y2="226" gradientUnits="userSpaceOnUse">
<stop stop-color="#F6BEFF"/>
<stop offset="1" stop-color="#C336A1"/>
</linearGradient>
</defs>
</svg>
